<svg width="881" height="155" fill="none"
  xmlns="http://www.w3.org/2000/svg">
  <g opacity=".6" filter="url(#a)">
    <path d="M732.795 77.5S601.957 110 440.635 110c-161.321 0-292.429-32.5-292.429-32.5S279.044 45 440.365 45c161.322 0 292.43 32.5 292.43 32.5Z" fill="#FF1113"/>
  </g>
  <g opacity=".7" filter="url(#b)">
    <path d="M855 77.5s-185.54 8.864-414.309 8.864C211.922 86.364 26 77.5 26 77.5s185.54-8.864 414.309-8.864C669.078 68.636 855 77.5 855 77.5Z" fill="#F77415"/>
  </g>

  <g filter="url(#d)">
    <path fill-rule="evenodd" clip-rule="evenodd" d="M283 77c0-11.598 9.402-21 21-21h272c11.598 0 21 9.402 21 21s-9.402 21-21 21H304c-11.598 0-21-9.402-21-21Z" fill="url(#e)"/>
  </g>
  <g opacity=".7" filter="url(#f)" fill="#FFE458">
    <path d="M360.928 83.258c-1.692 0-3.85.053-5.347.219l2.139.129c.738-.081 1.944-.132 3.052-.132 1.614 0 2.781.072 3.267.181.117.024.233.052.272.079h-5.891l-.525.209h6.183c-.292.077-.817.144-1.478.19-.758.057-1.692.09-2.703.09-1.497 0-2.741-.066-3.247-.186l-2.664.079c.759.173 2.586.324 5.775.324 2.003 0 3.87-.066 5.25-.182 1.4-.116 2.275-.286 2.275-.488 0-.312-2.78-.512-6.358-.512ZM378.853 84.42l2.314-.93h3.792l.525-.213h-10.345l-.544.214h3.791l-2.313.928h2.78ZM390.639 83.927c0 .314 2.781.513 6.378.513 4.278 0 7.525-.298 7.525-.672 0-.311-2.781-.51-6.358-.51-4.278 0-7.545.296-7.545.67Zm11.025-.142c0 .245-2.003.439-4.491.439-2.081 0-3.656-.118-3.656-.312 0-.245 1.983-.438 4.492-.438 2.08 0 3.655.12 3.655.311ZM422.448 83.927c0 .312 2.8.513 6.377.513 1.692 0 3.85-.053 5.328-.22l-2.119-.128c-.739.08-1.945.132-3.053.132-2.236 0-3.656-.134-3.656-.312 0-.25 2.081-.438 4.531-.438 1.497 0 2.722.066 3.228.186l2.663-.078c-.758-.173-2.586-.324-5.755-.324-4.044 0-7.544.265-7.544.67ZM443.918 84.42l1.011-.405h3.267c4.064 0 5.366-.252 5.366-.421 0-.173-1.458-.317-3.947-.317h-5.6l-2.858 1.142h2.761Zm1.556-.62.777-.314h2.781c.992 0 1.633.056 1.633.132 0 .102-.855.183-2.333.183h-2.858ZM459.896 83.927c0 .314 2.78.513 6.377.513 4.278 0 7.525-.298 7.525-.672 0-.311-2.781-.51-6.358-.51-4.278 0-7.544.296-7.544.67Zm11.024-.142c0 .245-2.002.439-4.491.439-2.081 0-3.656-.118-3.656-.312 0-.245 1.984-.438 4.492-.438 2.08 0 3.655.12 3.655.311ZM485.393 83.277h-2.761l-.797.318c-.739.303.953.439 3.928.439 1.069 0 2.1-.026 2.741-.059l-1.089.444h2.761l2.839-1.142h-2.761l-1.264.505c-.661.02-1.38.038-2.197.038-1.711 0-2.566-.064-2.216-.211l.816-.332ZM510.4 84.42l2.859-1.143h-2.781l-1.128.448h-6.105l1.108-.448h-2.761l-2.858 1.142h2.761l1.205-.48h6.125l-1.205.48h2.78ZM519.561 83.927c0 .314 2.781.513 6.378.513 4.277 0 7.525-.298 7.525-.672 0-.311-2.781-.51-6.359-.51-4.277 0-7.544.296-7.544.67Zm11.025-.142c0 .245-2.003.439-4.492.439-2.08 0-3.655-.118-3.655-.312 0-.245 1.983-.438 4.491-.438 2.081 0 3.656.12 3.656.311Z"/>
  </g>
  <g opacity=".2" filter="url(#g)" fill="#FFE458">
    <path d="M350.832 77.349c-1.691 0-3.85.053-5.347.219l2.139.128c.739-.08 1.944-.132 3.053-.132 1.613 0 2.78.072 3.266.182.117.024.233.051.272.079h-5.891l-.525.209h6.183c-.292.077-.817.144-1.478.19-.758.056-1.691.09-2.702.09-1.498 0-2.742-.066-3.248-.186l-2.663.079c.758.173 2.586.324 5.774.324 2.003 0 3.87-.066 5.25-.182 1.4-.117 2.275-.286 2.275-.488 0-.312-2.78-.512-6.358-.512ZM368.757 78.51l2.314-.928h3.792l.525-.214h-10.344l-.545.214h3.792l-2.314.928h2.78ZM380.544 78.018c0 .314 2.78.513 6.377.513 4.278 0 7.525-.299 7.525-.672 0-.312-2.78-.51-6.358-.51-4.278 0-7.544.296-7.544.67Zm11.025-.142c0 .245-2.003.439-4.492.439-2.081 0-3.656-.118-3.656-.312 0-.245 1.984-.439 4.492-.439 2.081 0 3.656.12 3.656.312ZM412.352 78.018c0 .312 2.8.513 6.378.513 1.691 0 3.85-.054 5.327-.22l-2.119-.128c-.739.08-1.944.132-3.053.132-2.236 0-3.655-.134-3.655-.312 0-.25 2.08-.439 4.53-.439 1.497 0 2.722.067 3.228.187l2.664-.079c-.759-.173-2.586-.323-5.756-.323-4.044 0-7.544.265-7.544.67ZM433.822 78.51l1.011-.404h3.267c4.064 0 5.367-.252 5.367-.422 0-.173-1.459-.316-3.948-.316h-5.599l-2.859 1.142h2.761Zm1.556-.618.778-.316h2.78c.992 0 1.633.057 1.633.132 0 .103-.855.184-2.333.184h-2.858ZM449.8 78.018c0 .314 2.78.513 6.377.513 4.278 0 7.525-.299 7.525-.672 0-.312-2.78-.51-6.358-.51-4.278 0-7.544.296-7.544.67Zm11.025-.142c0 .245-2.003.439-4.492.439-2.08 0-3.655-.118-3.655-.312 0-.245 1.983-.439 4.491-.439 2.081 0 3.656.12 3.656.312ZM475.298 77.368h-2.762l-.797.318c-.739.303.953.438 3.928.438 1.069 0 2.1-.025 2.742-.058l-1.089.444h2.761l2.839-1.142h-2.761l-1.264.505c-.661.02-1.381.037-2.198.037-1.711 0-2.566-.063-2.216-.21l.817-.332ZM500.305 78.51l2.858-1.142h-2.781l-1.127.448h-6.106l1.108-.448h-2.761l-2.858 1.142h2.761l1.206-.48h6.125l-1.206.48h2.781ZM509.465 78.018c0 .314 2.781.513 6.378.513 4.278 0 7.525-.299 7.525-.672 0-.312-2.781-.51-6.358-.51-4.278 0-7.545.296-7.545.67Zm11.025-.142c0 .245-2.003.439-4.491.439-2.081 0-3.656-.118-3.656-.312 0-.245 1.983-.439 4.492-.439 2.08 0 3.655.12 3.655.312Z"/>
  </g>
  <path d="m317.858 82 2.058-9.338h-8.694L309.164 82h2.408l1.596-7.238h3.878L315.45 82h2.408Zm3.923-4.074c0 2.562 2.058 4.242 4.732 4.242 3.164 0 5.516-2.422 5.516-5.446 0-2.534-2.058-4.214-4.732-4.214-3.164 0-5.516 2.408-5.516 5.418Zm7.742-1.022c0 1.722-1.232 3.136-2.87 3.136-1.386 0-2.366-.91-2.366-2.268 0-1.722 1.232-3.136 2.87-3.136 1.386 0 2.366.91 2.366 2.268ZM344.498 82l2.058-9.338h-3.43l-3.108 5.208-.798-5.208h-3.262L333.9 82h2.408l1.372-6.216.98 6.216h1.064l3.738-6.216L342.09 82h2.408Zm3.919-4.074c0 2.562 2.058 4.242 4.732 4.242 3.164 0 5.516-2.422 5.516-5.446 0-2.534-2.058-4.214-4.732-4.214-3.164 0-5.516 2.408-5.516 5.418Zm7.742-1.022c0 1.722-1.232 3.136-2.87 3.136-1.386 0-2.366-.91-2.366-2.268 0-1.722 1.232-3.136 2.87-3.136 1.386 0 2.366.91 2.366 2.268ZM362.944 82l1.596-7.238h4.424l.476-2.1h-6.846L360.536 82h2.408Zm9.884 0 5.222-5.796L376.762 82h2.422l2.058-9.338h-2.492l-4.984 5.53 1.204-5.53h-2.408L370.504 82h2.324Zm14.353 0 1.582-7.238h2.618l.462-2.1h-7.63l-.476 2.1h2.618L384.773 82h2.408Zm12.417 0 .448-2.03h-4.438l.378-1.68h4.326l.448-2.044h-4.326l.336-1.554h4.438l.448-2.03h-6.846L392.752 82h6.846Zm12.512-.882-1.624-2.45 2.856-2.548h-2.002l-2.8 2.478 1.68 2.52h1.89Zm2.968 0-1.624-2.45 2.856-2.548h-2.002l-2.8 2.478 1.68 2.52h1.89Zm13.556.882 2.058-9.338h-3.43l-3.108 5.208-.798-5.208h-3.262L418.036 82h2.408l1.372-6.216.98 6.216h1.064l3.738-6.216L426.226 82h2.408Zm10.345 0 .448-2.03h-4.438l.378-1.68h4.326l.448-2.044h-4.326l.336-1.554h4.438l.448-2.03h-6.846L432.133 82h6.846Zm2.322 1.722h2.086l.378-1.722h5.838l-.378 1.722h2.114l.84-3.822h-1.106l1.582-7.238h-6.734l-.77 2.422c-1.008 3.248-1.792 4.41-2.282 4.816h-.742l-.826 3.822Zm6.076-8.96h2.408l-1.134 5.138h-3.36c.448-.504 1.064-1.722 1.778-4.116l.308-1.022Zm11.797 2.268-1.316-4.368h-2.646l2.24 6.692c-.364.462-.686.686-1.26.686-.196 0-.392-.028-.56-.126l-.924 2.072c.322.126.812.182 1.232.182 1.722 0 2.884-.812 3.682-2.002l5.068-7.504h-2.772l-2.744 4.368Zm5.538 3.192c.784 1.288 2.646 1.946 4.452 1.946 2.016 0 3.836-1.162 3.836-2.828 0-1.232-.77-1.834-1.75-2.072 1.218-.168 2.52-1.092 2.52-2.268 0-1.554-1.652-2.478-4.06-2.478-1.316 0-2.618.476-3.402 1.176l.798 1.582c.63-.434 1.568-.7 2.366-.7 1.218 0 1.806.35 1.806.868 0 .602-.728.826-1.736.826h-1.792l-.462 2.03h1.708c1.316 0 1.638.392 1.638.77 0 .546-.518 1.036-1.512 1.036-.91 0-2.254-.42-2.898-1.316l-1.512 1.428ZM482.367 82l.448-2.03h-4.438l.378-1.68h4.326l.448-2.044h-4.326l.336-1.554h4.438l.448-2.03h-6.846L475.521 82h6.846Zm4.212-5.88 1.624 2.45-2.856 2.548h2.002l2.8-2.478-1.68-2.52h-1.89Zm2.968 0 1.624 2.45-2.856 2.548h2.002l2.8-2.478-1.68-2.52h-1.89Zm5.842 4.844c0 .658.518 1.204 1.19 1.204.77 0 1.442-.644 1.442-1.414 0-.672-.532-1.218-1.19-1.218-.784 0-1.442.644-1.442 1.428Zm11.429-3.038c0 2.604 2.1 4.242 4.732 4.242 1.246 0 2.926-.448 4.046-1.974l-1.876-1.232c-.42.63-1.274 1.078-2.03 1.078-1.456 0-2.366-1.008-2.366-2.268 0-1.722 1.274-3.136 2.898-3.136 1.036 0 1.848.56 2.114 1.498l2.324-.756c-.49-1.456-1.806-2.87-4.326-2.87-2.996 0-5.516 2.156-5.516 5.418ZM524.758 82l.448-2.03h-4.438l.378-1.68h4.326l.448-2.044h-4.326l.336-1.554h4.438l.448-2.03h-6.846L517.912 82h6.846Zm9.882-9.968c1.022 0 1.96-.448 2.646-1.218l-.91-1.008c-.462.518-1.008.798-1.596.798-.616 0-1.148-.336-1.386-.798l-1.218.938c.532.798 1.428 1.288 2.464 1.288ZM530.3 82l5.222-5.796L534.234 82h2.422l2.058-9.338h-2.492l-4.984 5.53 1.204-5.53h-2.408L527.976 82h2.324Zm14.101-9.338h-2.408l-.56 2.562c-.588 2.674.616 3.808 2.814 3.808.77 0 1.512-.196 1.946-.434L545.451 82h2.408l2.044-9.338h-2.408l-.882 4.004c-.35.14-.84.266-1.358.266-.994 0-1.694-.378-1.456-1.456l.602-2.814ZM560.43 82l-1.47-9.338h-3.024L550.364 82h2.73l.798-1.414h3.864l.182 1.414h2.492Zm-2.856-3.444h-2.604l2.142-3.864.462 3.864Zm5.157-.63c0 2.604 2.1 4.242 4.732 4.242 1.246 0 2.926-.448 4.046-1.974l-1.876-1.232c-.42.63-1.274 1.078-2.03 1.078-1.456 0-2.366-1.008-2.366-2.268 0-1.722 1.274-3.136 2.898-3.136 1.036 0 1.848.56 2.114 1.498l2.324-.756c-.49-1.456-1.806-2.87-4.326-2.87-2.996 0-5.516 2.156-5.516 5.418Z" fill="#fff"/>
  <defs>
    <filter id="a" x="103.206" y="0" width="674.589" height="155" filterUnits="userSpaceOnUse" color-interpolation-filters="sRGB">
      <feFlood flood-opacity="0" result="BackgroundImageFix"/>
      <feBlend in="SourceGraphic" in2="BackgroundImageFix" result="shape"/>
      <feGaussianBlur stdDeviation="22.5" result="effect1_foregroundBlur_2_470"/>
    </filter>
    <filter id="b" x="0" y="42.636" width="881" height="69.727" filterUnits="userSpaceOnUse" color-interpolation-filters="sRGB">
      <feFlood flood-opacity="0" result="BackgroundImageFix"/>
      <feBlend in="SourceGraphic" in2="BackgroundImageFix" result="shape"/>
      <feGaussianBlur stdDeviation="13" result="effect1_foregroundBlur_2_470"/>
    </filter>
    <filter id="c" x="204.505" y="30.636" width="470.869" height="91.364" filterUnits="userSpaceOnUse" color-interpolation-filters="sRGB">
      <feFlood flood-opacity="0" result="BackgroundImageFix"/>
      <feBlend in="SourceGraphic" in2="BackgroundImageFix" result="shape"/>
      <feGaussianBlur stdDeviation="19" result="effect1_foregroundBlur_2_470"/>
    </filter>
    <filter id="d" x="261" y="34" width="358" height="86" filterUnits="userSpaceOnUse" color-interpolation-filters="sRGB">
      <feFlood flood-opacity="0" result="BackgroundImageFix"/>
      <feBlend in="SourceGraphic" in2="BackgroundImageFix" result="shape"/>
      <feGaussianBlur stdDeviation="11" result="effect1_foregroundBlur_2_470"/>
    </filter>
    <filter id="f" x="345.986" y="75.258" width="195.478" height="17.182" filterUnits="userSpaceOnUse" color-interpolation-filters="sRGB">
      <feFlood flood-opacity="0" result="BackgroundImageFix"/>
      <feBlend in="SourceGraphic" in2="BackgroundImageFix" result="shape"/>
      <feGaussianBlur stdDeviation="4" result="effect1_foregroundBlur_2_470"/>
    </filter>
    <filter id="g" x="335.891" y="69.349" width="195.478" height="17.182" filterUnits="userSpaceOnUse" color-interpolation-filters="sRGB">
      <feFlood flood-opacity="0" result="BackgroundImageFix"/>
      <feBlend in="SourceGraphic" in2="BackgroundImageFix" result="shape"/>
      <feGaussianBlur stdDeviation="4" result="effect1_foregroundBlur_2_470"/>
    </filter>
    <radialGradient id="e" cx="0" cy="0" r="1" gradientUnits="userSpaceOnUse" gradientTransform="matrix(156.9996 .35595 -2.08033 917.58264 440 77)">
      <stop stop-color="#FF3232"/>
      <stop offset="1" stop-color="#FF6711"/>
    </radialGradient>
  </defs>
</svg>